<?xml version="1.0" encoding="UTF-8" standalone="no" ?>
<!DOCTYPE svg PUBLIC "-//W3C//DTD SVG 1.1//EN" "http://www.w3.org/Graphics/SVG/1.1/DTD/svg11.dtd">
<svg xmlns="http://www.w3.org/2000/svg" xmlns:xlink="http://www.w3.org/1999/xlink" version="1.1" width="1280" height="1024" viewBox="0 0 1280 1024" xml:space="preserve">
<desc>Created with Fabric.js 5.3.0</desc>
<defs>
</defs>
<g transform="matrix(1 0 0 1 640 512)" id="background-logo"  >
<rect style="stroke: none; stroke-width: 0; stroke-dasharray: none; stroke-linecap: butt; stroke-dashoffset: 0; stroke-linejoin: miter; stroke-miterlimit: 4; fill: rgb(255,255,255); fill-rule: nonzero; opacity: 1;"  paint-order="stroke"  x="-640" y="-512" rx="0" ry="0" width="1280" height="1024" />
</g>
<g transform="matrix(1.9211538461538462 0 0 1.9211538461538462 652.2195302043384 524.2983108360324)" id="text-logo"  >
<g style=""  paint-order="stroke"   >
		<g transform="matrix(1 0 0 1 0 0)" id="text-logo-path-0"  >
<linearGradient id="SVGID_58582" gradientUnits="userSpaceOnUse" gradientTransform="matrix(1 0 0 1 5.455597129213828 -85.46)"  x1="-5.422750415802" y1="-10.370260000000002" x2="-5.422750415802" y2="112.62974">
<stop offset="0%" style="stop-color:rgb(66,230,149);stop-opacity: 1"/>
<stop offset="100%" style="stop-color:rgb(59,178,184);stop-opacity: 1"/>
</linearGradient>
<filter id="SVGID_58580" y="-23.730713239354348%" height="147.4614264787087%" x="-22.3046722996512%" width="144.6093445993024%" >
	<feGaussianBlur in="SourceAlpha" stdDeviation="0"></feGaussianBlur>
	<feOffset dx="11.473684210526315" dy="4.302631578947368" result="oBlur" ></feOffset>
	<feFlood flood-color="rgb(169,191,183)" flood-opacity="1"/>
	<feComposite in2="oBlur" operator="in" />
	<feMerge>
		<feMergeNode></feMergeNode>
		<feMergeNode in="SourceGraphic"></feMergeNode>
	</feMerge>
</filter>
<path style="stroke: rgb(255,255,255); stroke-width: 10.039473684210524; stroke-dasharray: none; stroke-linecap: butt; stroke-dashoffset: 0; stroke-linejoin: miter; stroke-miterlimit: 4; fill: url(#SVGID_58582); fill-rule: nonzero; opacity: 1;filter: url(#SVGID_58580);"  paint-order="stroke"  transform=" translate(-254.3778454736483, 27.794999999999995)" d="M 58.31 -53.52 C 65.29 -54.39 63.98 -65.29 57.01 -64.42 C 39.89 -62.24 35.21 -45.23 32.81 -31.07 C 29.65 -14.06 28.34 -9.05 16.02 -13.08 C 6.21 -16.35 0.65 -0.98 11.01 2.4 C 37.71 11.23 44.36 -10.9 47.2 -25.07 C 49.49 -24.74 51.45 -24.63 53.52 -24.52 C 60.71 -17.44 63.87 2.62 83.49 2.62 C 97.77 2.62 101.7 -12.54 104.09 -19.62 C 105.84 -24.85 97.66 -27.9 95.81 -22.45 C 93.85 -16.68 88.62 -6.1 83.49 -6.1 C 75.75 -6.1 73.68 -16.89 68.23 -25.83 C 84.47 -30.08 89.82 -42.62 91.34 -50.79 C 94.5 -68.56 78.48 -83.28 61.8 -83.28 C 36.95 -83.28 18.86 -65.62 13.19 -45.56 C 10.46 -35.86 25.94 -30.41 28.89 -40.98 C 33.03 -55.7 41.86 -72.38 61.8 -72.38 C 72.7 -72.38 80.33 -63.33 78.48 -52.97 C 77.61 -48.4 76.3 -36.41 61.26 -33.79 C 58.31 -35.97 54.28 -37.6 49.49 -37.82 C 51.12 -47.2 52.97 -52.87 58.31 -53.52 Z M 169.93 -18.75 C 172.87 -23.43 165.46 -28.01 162.52 -23.33 C 158.27 -16.57 150.64 -12.43 142.25 -12.43 C 137.88 -12.43 134.72 -14.39 132.87 -17.44 C 140.28 -18.97 147.69 -20.82 153.91 -28.34 C 160.77 -36.73 163.61 -56.24 146.71 -56.24 C 132.33 -56.24 123.28 -44.8 119.14 -31.5 C 114.34 -14.71 124.8 0.65 142.25 0.65 C 159.14 0.65 165.24 -11.34 169.93 -18.75 Z M 131.34 -25.94 C 131.45 -26.6 131.56 -27.14 131.78 -27.79 C 134.94 -38.15 140.39 -45.34 146.71 -45.34 C 147.48 -45.34 153.91 -42.18 147.15 -34.01 C 142.46 -28.23 138.76 -27.47 131.34 -25.94 Z M 185.63 -24.31 C 182.25 -22.34 183.34 -17.98 185.84 -16.57 L 186.06 -15.8 C 189.33 -5.67 197.4 1.96 207.75 1.96 C 208.41 2.18 209.06 2.29 209.82 2.29 C 227.05 2.29 235.88 -6.1 242.96 -18.75 C 245.69 -23.65 238.16 -27.9 235.33 -22.89 C 230.97 -15.15 228.25 -11.45 222.47 -9.81 C 226.83 -21.04 225.85 -38.7 219.63 -55.05 C 217.24 -61.26 208.73 -59.62 207.21 -54.5 C 206.99 -54.28 206.66 -53.85 206.45 -53.3 C 201.43 -40.77 192.38 -28.23 185.63 -24.31 Z M 196.53 -19.07 C 196.31 -19.73 195.98 -20.38 195.66 -20.82 C 201.21 -25.83 206.34 -33.03 210.48 -41.09 C 216.58 -18.42 208.84 -8.94 207.86 -8.94 C 204.27 -8.94 198.49 -12.86 196.53 -19.07 Z M 283.4 -70.09 C 285.58 -78.15 273.15 -82.08 270.87 -73.68 L 267.7 -62.35 L 261.06 -62.67 C 255.6 -63 254.95 -54.28 260.62 -53.95 L 265.2 -53.74 L 257.35 -25.83 L 257.35 -25.4 C 253.86 -10.68 259.86 0.65 272.5 0.65 C 281 0.65 287.76 -7.96 292.23 -19.51 C 294.3 -24.74 286.23 -27.9 284.16 -22.56 C 279.48 -10.68 274.03 -10.25 272.5 -10.25 C 269.34 -10.25 267.49 -11.55 269.99 -22.56 C 269.99 -22.34 269.99 -22.45 269.99 -22.56 L 278.82 -53.63 C 281.76 -53.63 284.71 -53.74 287.76 -53.95 C 293.32 -54.28 292.66 -63 287.11 -62.67 L 281.22 -62.35 Z M 307.49 -31.61 C 303.46 -17.66 308.69 1.64 327.55 1.64 C 333.54 1.64 338.44 -0.98 342.26 -4.8 L 343.02 -4.8 C 353.6 -4.8 362.21 -11.66 364.82 -20.06 C 366.46 -25.29 358.28 -28.23 356.54 -22.67 C 354.8 -17.11 352.94 -14.82 348.69 -13.95 C 350.33 -17.11 351.63 -20.49 352.72 -23.98 C 355.88 -35.42 350.33 -48.29 339.97 -49.05 C 340.95 -52.1 339.32 -56.24 334.96 -56.24 C 320.57 -56.24 311.96 -45.89 307.49 -31.61 Z M 319.92 -27.69 C 321.33 -32.16 323.51 -36.62 326.02 -39.78 C 321.77 -31.28 321.99 -18.97 328.09 -11.45 L 327.55 -11.45 C 320.46 -11.45 316.97 -17.44 319.92 -27.69 Z M 336.26 -16.02 C 328.96 -22.67 333.1 -40.33 338.99 -40.33 C 342.26 -40.33 344.44 -35.1 342.26 -27.25 C 340.73 -22.13 338.55 -18.53 336.26 -16.02 Z M 430.88 -19.18 C 432.95 -24.31 424.88 -27.58 422.81 -22.45 C 418.12 -10.9 408.64 -11.77 402.97 -23.76 C 402.65 -24.52 401.99 -25.4 401.56 -25.83 L 401.56 -25.94 C 422.05 -44.58 440.58 -85.46 416.6 -85.46 C 405.04 -85.46 388.37 -53.74 380.19 -23.87 C 379.43 -22.78 379.21 -21.47 379.32 -20.38 C 373 4.69 373.11 27.25 387.71 27.25 C 400.03 27.25 404.72 11.23 404.94 -4.14 C 415.73 -0.65 427.28 -10.25 430.88 -19.18 Z M 387.71 16.35 C 381.39 16.35 384.44 0.76 390.66 -17.44 C 396 0.11 388.59 16.35 387.71 16.35 Z M 395.89 -31.5 C 404.06 -52.32 414.09 -72.38 416.6 -72.38 C 424.01 -72.38 410.28 -44.15 395.89 -31.5 Z M 494.42 -45.78 C 496.5 -53.74 483.96 -57.66 481.78 -49.27 L 475.79 -26.05 C 475.68 -25.83 475.57 -25.61 475.46 -25.18 C 473.5 -17.22 467.17 -12.43 461.51 -12.43 C 457.36 -12.43 454.53 -15.26 457.26 -23.65 C 459.54 -30.85 462.92 -43.05 464.23 -47.52 C 466.63 -55.48 454.31 -59.73 451.81 -51.45 C 450.28 -46.54 446.9 -34.34 444.83 -27.79 C 441.01 -15.91 444.72 0.65 461.51 0.65 L 462.05 0.65 C 459.44 1.31 457.15 1.74 454.97 2.07 C 444.28 3.49 431.53 6.43 430.33 16.13 C 429.35 25.07 437.74 29.87 447.01 29.87 C 462.6 29.87 472.62 18.09 478.95 5.45 C 488.76 0.22 498.02 -7.74 502.93 -19.29 C 505.11 -24.52 497.04 -27.9 494.86 -22.78 C 492.68 -17.66 489.3 -13.63 485.16 -10.25 C 486.69 -15.15 487.78 -19.73 488.32 -22.24 Z M 441.23 17.44 C 441.23 17.33 444.28 14.5 456.27 12.97 L 460.09 12.21 C 456.38 16.46 452.13 18.97 447.01 18.97 C 440.14 18.97 441.23 17.44 441.23 17.44 Z" stroke-linecap="round" />
</g>
</g>
</g>
</svg>